<mxfile host="app.diagrams.net" agent="Mozilla/5.0 (Windows NT 10.0; Win64; x64) AppleWebKit/537.36 (KHTML, like Gecko) Chrome/129.0.0.0 Safari/537.36" version="24.7.17">
  <diagram name="ページ1" id="0aVKXO2O4mhz6pQt0cXo">
    <mxGraphModel grid="0" page="0" gridSize="10" guides="1" tooltips="1" connect="1" arrows="1" fold="1" pageScale="1" pageWidth="827" pageHeight="1169" math="0" shadow="0">
      <root>
        <mxCell id="0" />
        <mxCell id="1" parent="0" />
        <mxCell id="WtBp2TXCuD_dbbJSKjoU-5" value="&lt;u&gt;Alice:Owner&lt;/u&gt;" style="html=1;whiteSpace=wrap;" vertex="1" parent="1">
          <mxGeometry x="185" y="214" width="110" height="50" as="geometry" />
        </mxCell>
        <mxCell id="WtBp2TXCuD_dbbJSKjoU-6" value="&lt;u&gt;:Staff&lt;/u&gt;" style="html=1;whiteSpace=wrap;" vertex="1" parent="1">
          <mxGeometry x="19" y="283" width="110" height="50" as="geometry" />
        </mxCell>
        <mxCell id="WtBp2TXCuD_dbbJSKjoU-7" value="&lt;u&gt;Chris:Chef&lt;/u&gt;" style="html=1;whiteSpace=wrap;" vertex="1" parent="1">
          <mxGeometry x="-49" y="356" width="110" height="50" as="geometry" />
        </mxCell>
        <mxCell id="WtBp2TXCuD_dbbJSKjoU-8" value="&lt;u&gt;Dan:Hall Staff&lt;/u&gt;" style="html=1;whiteSpace=wrap;" vertex="1" parent="1">
          <mxGeometry x="82" y="356" width="110" height="50" as="geometry" />
        </mxCell>
        <mxCell id="WtBp2TXCuD_dbbJSKjoU-9" value="&lt;u&gt;神戸店:Restaurant&lt;/u&gt;" style="html=1;whiteSpace=wrap;" vertex="1" parent="1">
          <mxGeometry x="349" y="283" width="110" height="50" as="geometry" />
        </mxCell>
        <mxCell id="WtBp2TXCuD_dbbJSKjoU-10" value="&lt;u&gt;:Table&lt;/u&gt;" style="html=1;whiteSpace=wrap;" vertex="1" parent="1">
          <mxGeometry x="485" y="356" width="110" height="50" as="geometry" />
        </mxCell>
        <mxCell id="WtBp2TXCuD_dbbJSKjoU-11" value="&lt;u&gt;:Kitchen&lt;/u&gt;" style="html=1;whiteSpace=wrap;" vertex="1" parent="1">
          <mxGeometry x="214" y="356" width="110" height="50" as="geometry" />
        </mxCell>
        <mxCell id="WtBp2TXCuD_dbbJSKjoU-12" value="&lt;u&gt;:Customer&lt;/u&gt;" style="html=1;whiteSpace=wrap;" vertex="1" parent="1">
          <mxGeometry x="424" y="441" width="110" height="50" as="geometry" />
        </mxCell>
        <mxCell id="WtBp2TXCuD_dbbJSKjoU-15" value="&lt;u&gt;:Table&lt;/u&gt;" style="html=1;whiteSpace=wrap;" vertex="1" parent="1">
          <mxGeometry x="349" y="356" width="110" height="50" as="geometry" />
        </mxCell>
        <mxCell id="WtBp2TXCuD_dbbJSKjoU-16" value="&lt;u&gt;:Customer&lt;/u&gt;" style="html=1;whiteSpace=wrap;" vertex="1" parent="1">
          <mxGeometry x="282" y="441" width="110" height="50" as="geometry" />
        </mxCell>
        <mxCell id="WtBp2TXCuD_dbbJSKjoU-24" value="" style="endArrow=none;html=1;rounded=0;fontSize=12;startSize=8;endSize=8;" edge="1" parent="1" source="WtBp2TXCuD_dbbJSKjoU-6" target="WtBp2TXCuD_dbbJSKjoU-5">
          <mxGeometry relative="1" as="geometry">
            <mxPoint x="111" y="83" as="sourcePoint" />
            <mxPoint x="260" y="83" as="targetPoint" />
          </mxGeometry>
        </mxCell>
        <mxCell id="WtBp2TXCuD_dbbJSKjoU-34" value="" style="endArrow=none;html=1;rounded=0;fontSize=12;startSize=8;endSize=8;" edge="1" parent="1" source="WtBp2TXCuD_dbbJSKjoU-5" target="WtBp2TXCuD_dbbJSKjoU-9">
          <mxGeometry relative="1" as="geometry">
            <mxPoint x="121" y="93" as="sourcePoint" />
            <mxPoint x="270" y="93" as="targetPoint" />
          </mxGeometry>
        </mxCell>
        <mxCell id="WtBp2TXCuD_dbbJSKjoU-35" value="" style="endArrow=none;html=1;rounded=0;fontSize=12;startSize=8;endSize=8;" edge="1" parent="1" source="WtBp2TXCuD_dbbJSKjoU-7" target="WtBp2TXCuD_dbbJSKjoU-6">
          <mxGeometry relative="1" as="geometry">
            <mxPoint x="131" y="103" as="sourcePoint" />
            <mxPoint x="280" y="103" as="targetPoint" />
          </mxGeometry>
        </mxCell>
        <mxCell id="WtBp2TXCuD_dbbJSKjoU-36" value="" style="endArrow=none;html=1;rounded=0;fontSize=12;startSize=8;endSize=8;" edge="1" parent="1" source="WtBp2TXCuD_dbbJSKjoU-6" target="WtBp2TXCuD_dbbJSKjoU-8">
          <mxGeometry relative="1" as="geometry">
            <mxPoint x="141" y="113" as="sourcePoint" />
            <mxPoint x="290" y="113" as="targetPoint" />
          </mxGeometry>
        </mxCell>
        <mxCell id="WtBp2TXCuD_dbbJSKjoU-37" value="" style="endArrow=none;html=1;rounded=0;fontSize=12;startSize=8;endSize=8;" edge="1" parent="1" source="WtBp2TXCuD_dbbJSKjoU-11" target="WtBp2TXCuD_dbbJSKjoU-9">
          <mxGeometry relative="1" as="geometry">
            <mxPoint x="151" y="123" as="sourcePoint" />
            <mxPoint x="300" y="123" as="targetPoint" />
          </mxGeometry>
        </mxCell>
        <mxCell id="WtBp2TXCuD_dbbJSKjoU-38" value="" style="endArrow=none;html=1;rounded=0;fontSize=12;startSize=8;endSize=8;" edge="1" parent="1" source="WtBp2TXCuD_dbbJSKjoU-9" target="WtBp2TXCuD_dbbJSKjoU-10">
          <mxGeometry relative="1" as="geometry">
            <mxPoint x="161" y="133" as="sourcePoint" />
            <mxPoint x="310" y="133" as="targetPoint" />
          </mxGeometry>
        </mxCell>
        <mxCell id="WtBp2TXCuD_dbbJSKjoU-39" value="" style="endArrow=none;html=1;rounded=0;fontSize=12;startSize=8;endSize=8;" edge="1" parent="1" source="WtBp2TXCuD_dbbJSKjoU-16" target="WtBp2TXCuD_dbbJSKjoU-15">
          <mxGeometry relative="1" as="geometry">
            <mxPoint x="171" y="143" as="sourcePoint" />
            <mxPoint x="320" y="143" as="targetPoint" />
          </mxGeometry>
        </mxCell>
        <mxCell id="WtBp2TXCuD_dbbJSKjoU-41" value="" style="endArrow=none;html=1;rounded=0;fontSize=12;startSize=8;endSize=8;" edge="1" parent="1" source="WtBp2TXCuD_dbbJSKjoU-9" target="WtBp2TXCuD_dbbJSKjoU-15">
          <mxGeometry relative="1" as="geometry">
            <mxPoint x="171" y="143" as="sourcePoint" />
            <mxPoint x="320" y="143" as="targetPoint" />
          </mxGeometry>
        </mxCell>
        <mxCell id="WtBp2TXCuD_dbbJSKjoU-42" value="" style="endArrow=none;html=1;rounded=0;fontSize=12;startSize=8;endSize=8;" edge="1" parent="1" source="WtBp2TXCuD_dbbJSKjoU-12" target="WtBp2TXCuD_dbbJSKjoU-15">
          <mxGeometry relative="1" as="geometry">
            <mxPoint x="181" y="153" as="sourcePoint" />
            <mxPoint x="330" y="153" as="targetPoint" />
          </mxGeometry>
        </mxCell>
      </root>
    </mxGraphModel>
  </diagram>
</mxfile>
